<svg xmlns="http://www.w3.org/2000/svg" viewBox="0 0 176 16">
  <path fill="#000" d="M123.54.45h1.35l5.95 15.1h-.92l-1.59-3.93h-8.26l-1.6 3.93h-.95l6.02-15.1zm4.5 10.3l-3.78-9.45h-.16l-3.74 9.44h7.67zM133.35.45h1.4l8.95 13.9h.17V.44h.92v15.1h-1.38l-9-13.9h-.16v13.9h-.93V.45h.03zM148.76.45h1.39l8.96 13.9h.16V.44h.93v15.1h-1.39l-8.96-13.9h-.16v13.9h-.93V.45zM168.7.45h1.35l5.95 15.1h-.96l-1.58-3.93h-8.27l-1.55 3.93h-.96l6.01-15.1zm4.49 10.3l-3.77-9.45h-.16l-3.74 9.44h7.67zM8.1 7.95c2.15 0 3.3-.97 3.3-2.47 0-1.49-1.28-2.43-3.3-2.43H4.03l.86 4.9h3.2zM0 .35h7.83c4.27 0 7.18 2.02 7.18 5.23 0 3.18-2.25 5.03-6.91 5.03H5.39l.99 5H2.74L0 .36zm74.88 15.26h-3.6L69.08 3.38h-4.92l-.5-3h13.39l.53 3h-4.93l2.22 12.23zm-47.7-2.56c2.5 0 4.06-1.56 4.06-3.93 0-3.25-2.55-6.2-6.02-6.2-2.5 0-4.06 1.53-4.06 3.86a6.06 6.06 0 006.01 6.27zM27.3 16c-5.72 0-9.89-3.93-9.89-9.22C17.45 2.5 20.5 0 24.96 0c5.72 0 9.92 3.96 9.92 9.15 0 4.35-3.01 6.85-7.57 6.85zM107.67.36h3.6l2.75 15.25h-3.6L107.66.36zm-28.2 0h11.1l.57 2.89h-7.57l.6 3.37h7.73l.46 2.47h-7.73l.66 3.63h8.3l.5 2.89H82.2L79.47.36zm-29.75 0h11.17l.53 2.89h-7.6l.6 3.37h7.73l.43 2.47h-7.7l.66 3.63h8.33l.5 2.89h-11.9L49.71.36zm44.73 0h3.6l2.21 12.23h7.48l.52 3.02H97.2L94.45.36zM36.5.36h3.6l2.21 12.23h7.44l.56 3.02H39.24L36.5.36z"/>
</svg>